<svg width="40" height="40" viewBox="0 0 40 40" fill="none" xmlns="http://www.w3.org/2000/svg">
  <path
    d="M31.7614 18.7679L18.5643 5.5714C17.8047 4.8112 16.572 4.8112 15.8113 5.5714L13.0711 8.31205L16.5473 11.7882C17.3552 11.5154 18.2816 11.6985 18.9254 12.3424C19.573 12.9903 19.7546 13.9247 19.4747 14.7355L22.8252 18.0856C23.636 17.8062 24.5708 17.9868 25.2184 18.6353C26.1231 19.5397 26.1231 21.0057 25.2184 21.9108C24.3132 22.8159 22.8475 22.8159 21.9418 21.9108C21.2614 21.2298 21.0931 20.23 21.4381 19.3917L18.3131 16.2669V24.4896C18.5335 24.5988 18.7416 24.7443 18.9254 24.9275C19.83 25.832 19.83 27.2978 18.9254 28.2037C18.0208 29.1079 16.554 29.1079 15.6501 28.2037C14.7455 27.2978 14.7455 25.832 15.6501 24.9275C15.8736 24.7042 16.1326 24.5352 16.4088 24.4221V16.1234C16.1326 16.0103 15.8743 15.8428 15.6501 15.6179C14.9649 14.933 14.8001 13.9273 15.1515 13.0858L11.7245 9.6583L2.67526 18.7068C1.91521 19.4676 1.91521 20.7003 2.67526 21.4604L15.873 34.657C16.6328 35.4171 17.8651 35.4171 18.626 34.657L31.7614 21.5216C32.5218 20.7613 32.5218 19.528 31.7614 18.7679"
    style="mix-blend-mode:luminosity" fill="url(#paint0_linear)"/>
  <path fill-rule="evenodd" clip-rule="evenodd"
    d="M20.851 34.1902L21.3166 34.6558C22.0764 35.4158 23.3087 35.4158 24.0696 34.6558L37.2051 21.5203C37.9655 20.76 37.9655 19.5268 37.2051 18.7667L24.008 5.57015C23.2483 4.80995 22.0157 4.80995 21.255 5.57015L20.7894 6.03577L33.5209 18.7667C34.2813 19.5267 34.2813 20.76 33.5209 21.5203L20.851 34.1902Z"
    fill="url(#paint0_linear)" style="mix-blend-mode:luminosity"/>
  <linearGradient id="paint0_linear" x1="2.94192" y1="4.89955" x2="37.7772" y2="39.7345"
    gradientUnits="userSpaceOnUse">
    <stop offset="0.1937" stop-color="#00C9FF"/>
    <stop offset="0.93739" stop-color="#92FE9D"/>
  </linearGradient>
</svg>
